HIERARCHY
ROOT Hips
{
  OFFSET 5.84602e-005 68.8428 3.50346
  CHANNELS 6 Xposition Yposition Zposition Zrotation Xrotation Yrotation
  JOINT Spine
  {
    OFFSET 0 8.597 -4.6522
    CHANNELS 3 Zrotation Xrotation Yrotation
    JOINT Spine1
    {
      OFFSET 0 7.8454 0.4098
      CHANNELS 3 Zrotation Xrotation Yrotation
      JOINT Spine2
      {
        OFFSET 0 9.7078 -2.1609
        CHANNELS 3 Zrotation Xrotation Yrotation
        JOINT Neck
        {
          OFFSET 0 21.8761 -0.4549
          CHANNELS 3 Zrotation Xrotation Yrotation
          JOINT Head
          {
            OFFSET 0 12.3537 3.3602
            CHANNELS 3 Zrotation Xrotation Yrotation
            End Site
            {
              OFFSET 0.0001 18.9506 0.5657
            }
          }
        }
        JOINT LeftShoulder
        {
          OFFSET 2.2086 21.1115 7.2329
          CHANNELS 3 Zrotation Xrotation Yrotation
          JOINT LeftArm
          {
            OFFSET 13.1193 3.0282 -4.8998
            CHANNELS 3 Zrotation Xrotation Yrotation
            JOINT LeftForeArm
            {
              OFFSET 27.4081 -0.0973053 -0.2375
              CHANNELS 3 Zrotation Xrotation Yrotation
              JOINT LeftHand
              {
                OFFSET 22.8641 0.0662994 -0.1369
                CHANNELS 3 Zrotation Xrotation Yrotation
                JOINT LeftHandIndex1
                {
                  OFFSET 8.8614 0.775009 2.4612
                  CHANNELS 3 Zrotation Xrotation Yrotation
                  JOINT LeftHandIndex2
                  {
                    OFFSET 3.3146 -0.808304 0.5841
                    CHANNELS 3 Zrotation Xrotation Yrotation
                    JOINT LeftHandIndex3
                    {
                      OFFSET 2.2628 -0.552002 0.3989
                      CHANNELS 3 Zrotation Xrotation Yrotation
                      End Site
                      {
                        OFFSET 1.6102 -0.4807 0.2612
                      }
                    }
                  }
                }
                JOINT LeftHandMiddle1
                {
                  OFFSET 8.9937 0.895004 0.2143
                  CHANNELS 3 Zrotation Xrotation Yrotation
                  JOINT LeftHandMiddle2
                  {
                    OFFSET 4.0984 0.0113983 -0.0242
                    CHANNELS 3 Zrotation Xrotation Yrotation
                    JOINT LeftHandMiddle3
                    {
                      OFFSET 2.2716 0.00689697 -0.0138001
                      CHANNELS 3 Zrotation Xrotation Yrotation
                      End Site
                      {
                        OFFSET 2.0404 -0.1441 0.0027
                      }
                    }
                  }
                }
                JOINT LeftHandRing1
                {
                  OFFSET 8.5234 0.597198 -2.0164
                  CHANNELS 3 Zrotation Xrotation Yrotation
                  JOINT LeftHandRing2
                  {
                    OFFSET 3.7188 -0.188293 -0.2328
                    CHANNELS 3 Zrotation Xrotation Yrotation
                    JOINT LeftHandRing3
                    {
                      OFFSET 2.1191 -0.106598 -0.1332
                      CHANNELS 3 Zrotation Xrotation Yrotation
                      End Site
                      {
                        OFFSET 1.8737 -0.2304 -0.0886
                      }
                    }
                  }
                }
                JOINT LeftHandPinky1
                {
                  OFFSET 7.9094 -0.601089 -3.4825
                  CHANNELS 3 Zrotation Xrotation Yrotation
                  JOINT LeftHandPinky2
                  {
                    OFFSET 2.2874 -0.477005 -0.6314
                    CHANNELS 3 Zrotation Xrotation Yrotation
                    JOINT LeftHandPinky3
                    {
                      OFFSET 1.6774 -0.349396 -0.4633
                      CHANNELS 3 Zrotation Xrotation Yrotation
                      End Site
                      {
                        OFFSET 1.4888 -0.4091 -0.3416
                      }
                    }
                  }
                }
                JOINT LeftHandThumb1
                {
                  OFFSET 1.833 -1.3875 1.3896
                  CHANNELS 3 Zrotation Xrotation Yrotation
                  JOINT LeftHandThumb2
                  {
                    OFFSET 3.4129 -1.121 2.5732
                    CHANNELS 3 Zrotation Xrotation Yrotation
                    JOINT LeftHandThumb3
                    {
                      OFFSET 2.2474 -0.804199 1.6192
                      CHANNELS 3 Zrotation Xrotation Yrotation
                      End Site
                      {
                        OFFSET 1.6527 -0.5689 1.1317
                      }
                    }
                  }
                }
              }
            }
          }
        }
        JOINT RightShoulder
        {
          OFFSET -2.2086 21.1115 7.2329
          CHANNELS 3 Zrotation Xrotation Yrotation
          JOINT RightArm
          {
            OFFSET -13.1216 3.0287 -4.9007
            CHANNELS 3 Zrotation Xrotation Yrotation
            JOINT RightForeArm
            {
              OFFSET -27.4081 -0.0973053 -0.2375
              CHANNELS 3 Zrotation Xrotation Yrotation
              JOINT RightHand
              {
                OFFSET -22.8641 0.0664063 -0.1369
                CHANNELS 3 Zrotation Xrotation Yrotation
                JOINT RightHandIndex1
                {
                  OFFSET -8.8614 0.774994 2.4612
                  CHANNELS 3 Zrotation Xrotation Yrotation
                  JOINT RightHandIndex2
                  {
                    OFFSET -3.3146 -0.808304 0.5841
                    CHANNELS 3 Zrotation Xrotation Yrotation
                    JOINT RightHandIndex3
                    {
                      OFFSET -2.2628 -0.552002 0.3989
                      CHANNELS 3 Zrotation Xrotation Yrotation
                      End Site
                      {
                        OFFSET -1.6102 -0.4807 0.2612
                      }
                    }
                  }
                }
                JOINT RightHandMiddle1
                {
                  OFFSET -8.9937 0.894989 0.2143
                  CHANNELS 3 Zrotation Xrotation Yrotation
                  JOINT RightHandMiddle2
                  {
                    OFFSET -4.0984 0.0113983 -0.0242
                    CHANNELS 3 Zrotation Xrotation Yrotation
                    JOINT RightHandMiddle3
                    {
                      OFFSET -2.2716 0.00691223 -0.0138001
                      CHANNELS 3 Zrotation Xrotation Yrotation
                      End Site
                      {
                        OFFSET -2.0404 -0.1441 0.0027
                      }
                    }
                  }
                }
                JOINT RightHandRing1
                {
                  OFFSET -8.5234 0.597198 -2.0164
                  CHANNELS 3 Zrotation Xrotation Yrotation
                  JOINT RightHandRing2
                  {
                    OFFSET -3.7188 -0.188309 -0.2328
                    CHANNELS 3 Zrotation Xrotation Yrotation
                    JOINT RightHandRing3
                    {
                      OFFSET -2.1191 -0.106598 -0.1332
                      CHANNELS 3 Zrotation Xrotation Yrotation
                      End Site
                      {
                        OFFSET -1.8737 -0.2304 -0.0886
                      }
                    }
                  }
                }
                JOINT RightHandPinky1
                {
                  OFFSET -7.9094 -0.601105 -3.4825
                  CHANNELS 3 Zrotation Xrotation Yrotation
                  JOINT RightHandPinky2
                  {
                    OFFSET -2.2874 -0.477005 -0.6314
                    CHANNELS 3 Zrotation Xrotation Yrotation
                    JOINT RightHandPinky3
                    {
                      OFFSET -1.6774 -0.349396 -0.4633
                      CHANNELS 3 Zrotation Xrotation Yrotation
                      End Site
                      {
                        OFFSET -1.4888 -0.4091 -0.3416
                      }
                    }
                  }
                }
                JOINT RightHandThumb1
                {
                  OFFSET -1.833 -1.38751 1.3896
                  CHANNELS 3 Zrotation Xrotation Yrotation
                  JOINT RightHandThumb2
                  {
                    OFFSET -3.41299 -1.12099 2.5732
                    CHANNELS 3 Zrotation Xrotation Yrotation
                    JOINT RightHandThumb3
                    {
                      OFFSET -2.24741 -0.804108 1.6192
                      CHANNELS 3 Zrotation Xrotation Yrotation
                      End Site
                      {
                        OFFSET -1.6527 -0.5689 1.1317
                      }
                    }
                  }
                }
              }
            }
          }
        }
      }
    }
  }
  JOINT RightUpLeg
  {
    OFFSET -9.1966 3.8861 -0.7581
    CHANNELS 3 Zrotation Xrotation Yrotation
    JOINT RightLeg
    {
      OFFSET -0.7359 -41.0265 0
      CHANNELS 3 Zrotation Xrotation Yrotation
      JOINT RightFoot
      {
        OFFSET 0 -40.2855 0
        CHANNELS 3 Zrotation Xrotation Yrotation
        JOINT RightToeBase
        {
          OFFSET 0 -5.6122 11.7359
          CHANNELS 3 Zrotation Xrotation Yrotation
          End Site
          {
            OFFSET 0 0 7.8731
          }
        }
      }
    }
  }
  JOINT LeftUpLeg
  {
    OFFSET 9.1965 3.8864 -0.7581
    CHANNELS 3 Zrotation Xrotation Yrotation
    JOINT LeftLeg
    {
      OFFSET 0.7359 -41.0268 0
      CHANNELS 3 Zrotation Xrotation Yrotation
      JOINT LeftFoot
      {
        OFFSET 0 -40.2855 0
        CHANNELS 3 Zrotation Xrotation Yrotation
        JOINT LeftToeBase
        {
          OFFSET 0 -5.6122 11.7359
          CHANNELS 3 Zrotation Xrotation Yrotation
          End Site
          {
            OFFSET 0 0 7.8731
          }
        }
      }
    }
  }
}
MOTION
Frames:	7
Frame Time:	0.0333333
5.84602e-005 68.8428 3.50346 0 0 -0 0 0 -0 0 0 -0 0 0 -0 0 0 -0 0 0 -0 0 0 -0 0 0 -0 0 0 -0 0 0 -0 0 0 -0 0 0 -0 0 0 -0 0 0 -0 -0.0146107 -8.87603e-005 -2.63497e-007 2.99804e-018 -2.42657e-020 -1.42182e-022 0 0 -0 -0.0187562 -0.001176 5.858e-005 5.06224e-018 3.88251e-019 1.21329e-020 0 0 -0 -0.012269 -0.00324817 0.000675346 -1.74678e-018 3.88251e-019 -0 0 0 -0 0 0 -0 0 0 -0 0 0 -0 0 0 -0 0 0 -0 0 0 -0 0 0 -0 0 0 -0 0 0 -0 0 0 -0 0.0149955 -9.10982e-005 2.64101e-007 -9.69331e-018 1.21329e-020 -4.7394e-023 0 0 -0 0.0189956 -0.00119102 -5.96516e-005 -5.41541e-019 0 2.42657e-020 0 0 -0 0.0122698 -0.00324857 -0.000673756 -2.00796e-019 0 -1.94126e-019 0 0 -0 0 0 -0 0 0 -0 3.39842 1.33031 -0.0637918 -5.65207e-008 0.834868 -0.000436188 -3.39935 -2.16518 -0.0642563 -8.89002e-024 -1.18485e-023 -1.48106e-024 -3.39844 1.35642 0.0640283 -3.18788e-007 0.782166 -0.000588827 3.39931 -2.13858 0.0634662 1.1399e-023 0 -0 
-1.96239 41.1442 -14.9738 -0 -6.59994 -0 0.0993417 10.5004 -0.0640579 0.216474 21.0007 -0.150916 0.216474 21.0007 -0.150916 0.358162 21.5016 -0.177908 3.37099 -4.86418 0.379336 9.16848 7.33969 -28.1845 -28.8953 -37.5967 -11.0335 31.6739 -1.59024 -92.0302 -2.17832 -21.0682 -12.836 5.40348e-007 3.67145e-007 2.99093e-006 5.39055e-007 -9.64698e-007 -3.32848e-006 9.00149e-007 1.67961e-007 2.87841e-006 5.40348e-007 3.67145e-007 2.99093e-006 -0.0146489 -8.7456e-005 -5.91853e-006 9.00355e-007 1.67594e-007 2.87843e-006 5.40348e-007 3.67145e-007 2.99093e-006 -0.0187811 -0.00117456 5.52895e-005 9.0044e-007 1.67505e-007 2.87842e-006 5.40348e-007 3.67145e-007 2.99093e-006 -0.0123263 -0.00326236 0.000676776 1.13224e-006 -7.73683e-007 5.50353e-006 5.40348e-007 3.67145e-007 2.99093e-006 5.39055e-007 -9.64698e-007 -3.32848e-006 9.00149e-007 1.67961e-007 2.87841e-006 -8.38383 7.92111 26.9194 28.261 -37.7351 10.8671 -31.5378 -1.14773 91.4308 0.925768 6.73637 -18.8785 6.41304e-007 9.39969e-008 -1.1605e-007 4.77083e-015 3.97569e-016 -0 4.77083e-015 -4.96962e-016 3.97569e-016 6.41304e-007 9.39969e-008 -1.1605e-007 0.0149989 -9.12381e-005 -2.68014e-006 1.11319e-014 2.28602e-015 7.95139e-016 6.41304e-007 9.39969e-008 -1.1605e-007 0.0190513 -0.00119337 -6.04102e-005 -1.59028e-015 9.93923e-016 -0 6.41304e-007 9.39969e-008 -1.1605e-007 0.012239 -0.00324073 -0.000673991 1.59028e-015 -1.98785e-016 -3.97569e-016 6.41304e-007 9.39969e-008 -1.1605e-007 4.77083e-015 3.97569e-016 -0 4.77083e-015 -4.96962e-016 3.97569e-016 -8.57557 0.372968 -6.81766 -5.26779 74.4536 8.80154 -16.03 37.4528 -0.605139 -1.59028e-015 -4.77083e-015 -7.95139e-016 7.73958 0.891531 6.74337 4.89164 74.3327 -8.39038 15.4751 37.9763 1.49434 -2.64834e-031 -3.18055e-015 -4.77083e-015 
-2.84637 28.6542 -23.4051 -0 -9.90781 -0 0.15875 15.3719 -0.110023 0.370785 30.7433 -0.282419 0.370784 30.7433 -0.282419 0.569664 31.1177 -0.279879 4.91809 -7.94296 0.624034 15.6991 8.59007 -40.7906 -49.5867 -53.3091 -21.4952 36.6372 -34.9636 -119.056 -6.51375 -30.021 -19.7997 0 3.18055e-015 -0 -6.36111e-015 3.18055e-015 -9.54166e-015 9.54166e-015 3.18055e-015 -0 0 3.18055e-015 -0 -0.0145974 -9.14105e-005 -1.7537e-006 -9.54166e-015 -9.54166e-015 -0 0 3.18055e-015 -0 -0.0187513 -0.00117931 6.23854e-005 -1.59028e-015 -3.18055e-015 -0 0 3.18055e-015 -0 -0.0122989 -0.00325717 0.000680166 4.77083e-015 3.18055e-015 -1.59028e-014 0 3.18055e-015 -0 -6.36111e-015 3.18055e-015 -9.54166e-015 9.54166e-015 3.18055e-015 -0 -14.7099 9.4424 39.0448 48.6117 -53.5451 21.2347 -37.0034 -34.6302 117.571 2.81822 8.85697 -27.8603 1.0664e-007 -1.18407e-007 -1.52818e-008 -1.4052e-006 -9.79616e-007 2.78364e-008 1.0664e-007 -1.18407e-007 -1.52818e-008 1.0664e-007 -1.18407e-007 -1.52818e-008 0.0149627 -9.23038e-005 4.10283e-007 1.0664e-007 -1.18409e-007 -1.52664e-008 1.0664e-007 -1.18407e-007 -1.52818e-008 0.0190024 -0.00119251 -6.5924e-005 1.0664e-007 -1.1841e-007 -1.52633e-008 1.0664e-007 -1.18407e-007 -1.52818e-008 0.0122385 -0.00324047 -0.00067542 1.0664e-007 -1.18408e-007 -1.52721e-008 1.0664e-007 -1.18407e-007 -1.52818e-008 -1.4052e-006 -9.79616e-007 2.78364e-008 1.0664e-007 -1.18407e-007 -1.52818e-008 -13.8569 0.24823 -10.3357 -158.665 72.7372 162.011 -20.5893 56.7568 -2.03819 4.39959e-007 7.23721e-008 -1.83542e-006 12.6187 1.00855 10.2537 158.885 72.988 -162.223 19.0151 57.5587 3.92809 -1.47359e-009 -1.69236e-006 -1.8353e-006 
-2.64985 31.4937 -21.6841 -0 -9.9237 -0 0.144481 14.6145 -0.101225 0.333957 29.2289 -0.255239 0.333957 29.2289 -0.255239 0.518593 28.8486 -0.253704 4.59532 -9.2381 0.729659 14.6834 7.11719 -37.2434 -44.2161 -49.9657 -18.4957 37.1412 -26.6296 -113.594 -5.06574 -28.8293 -17.4956 1.53283e-006 -4.6737e-007 -4.58799e-007 -1.56681e-006 1.42435e-006 -1.01944e-006 1.53283e-006 -4.6737e-007 -4.58799e-007 1.53283e-006 -4.6737e-007 -4.58799e-007 -0.0146343 -9.08524e-005 -3.66327e-007 1.53288e-006 -4.67311e-007 -4.5886e-007 1.53283e-006 -4.6737e-007 -4.58799e-007 -0.0187684 -0.00117558 5.78503e-005 1.53289e-006 -4.67292e-007 -4.58892e-007 1.53283e-006 -4.6737e-007 -4.58799e-007 -0.0123324 -0.00326042 0.000680915 1.53285e-006 -4.67319e-007 -4.58895e-007 1.53283e-006 -4.6737e-007 -4.58799e-007 -1.56681e-006 1.42435e-006 -1.01944e-006 1.53283e-006 -4.6737e-007 -4.58799e-007 -13.8621 7.86624 35.7068 43.2912 -50.1885 18.2377 -37.3085 -26.2482 112.413 2.45948 7.74192 -26.5294 1.40414e-007 -1.60426e-007 -9.60755e-009 2.80828e-007 -3.20853e-007 -1.92151e-008 2.80828e-007 -3.20853e-007 -1.92151e-008 1.40414e-007 -1.60426e-007 -9.60755e-009 0.0150423 -9.12505e-005 3.07473e-007 2.80827e-007 -3.20855e-007 -1.91732e-008 1.40414e-007 -1.60426e-007 -9.60755e-009 0.0189752 -0.00118979 -6.73714e-005 5.96796e-007 -2.21742e-007 3.83131e-006 1.40414e-007 -1.60426e-007 -9.60755e-009 0.0123033 -0.00325719 -0.000667658 2.80828e-007 -3.20853e-007 -1.91886e-008 1.40414e-007 -1.60426e-007 -9.60755e-009 2.80828e-007 -3.20853e-007 -1.92151e-008 2.80828e-007 -3.20853e-007 -1.92151e-008 -12.7392 0.756229 -9.40108 -150.792 79.5566 154.299 -19.7272 52.3623 -1.57354 -1.56066e-006 3.00996e-006 2.02606e-006 11.6133 1.45916 9.34289 150.976 79.7855 -154.461 18.6764 53.2191 3.00849 -3.19597e-007 2.14251e-008 -1.67144e-006 
-2.64985 31.5463 -21.8122 -0 -10.5385 -0 0.144528 14.881 -0.103307 0.335992 29.7616 -0.261074 0.335992 29.7616 -0.261074 0.518032 28.7391 -0.252566 4.61848 -10.8642 0.862741 15.1066 6.06342 -36.6272 -44.216 -49.9657 -18.4957 37.1397 -26.6327 -113.605 -4.83916 -29.4193 -16.9766 1.59028e-014 0 1.90833e-014 1.43125e-014 -1.27222e-014 9.54166e-015 4.77083e-015 -3.18055e-015 6.36111e-015 1.59028e-014 0 1.90833e-014 -0.0146282 -8.59697e-005 -2.27117e-006 1.05934e-030 9.54166e-015 -6.36111e-015 1.59028e-014 0 1.90833e-014 -0.0187542 -0.00117603 6.05693e-005 -1.41245e-030 -2.54444e-014 -3.18055e-015 1.59028e-014 0 1.90833e-014 -0.0122607 -0.003247 0.000673823 4.77083e-015 9.54166e-015 -0 1.59028e-014 0 1.90833e-014 1.43125e-014 -1.27222e-014 9.54166e-015 4.77083e-015 -3.18055e-015 6.36111e-015 -14.3898 6.77704 35.1739 43.2713 -50.1981 18.2249 -37.307 -26.2513 112.423 2.55673 7.17387 -27.0806 -1.40496e-007 1.60362e-007 9.5418e-009 1.64842e-007 2.7174e-007 4.5054e-006 -1.40496e-007 1.60362e-007 9.54183e-009 -1.40496e-007 1.60362e-007 9.5418e-009 0.0150349 -9.13857e-005 -4.00028e-006 -1.40495e-007 1.60363e-007 9.5209e-009 -1.40496e-007 1.60362e-007 9.5418e-009 0.0189565 -0.00118838 -6.4084e-005 -1.40495e-007 1.60363e-007 9.51673e-009 -1.40496e-007 1.60362e-007 9.5418e-009 0.012262 -0.0032461 -0.000673599 -1.40496e-007 1.60362e-007 9.52862e-009 -1.40496e-007 1.60362e-007 9.5418e-009 1.64842e-007 2.7174e-007 4.5054e-006 -1.40496e-007 1.60362e-007 9.54183e-009 -12.7798 1.11211 -9.3287 -150.802 79.5535 154.309 -19.7265 52.3605 -1.57451 3.45546e-007 4.44149e-006 1.71226e-006 11.6712 1.81236 9.28966 151 79.7779 -154.481 18.8305 53.3102 2.90125 4.97373e-007 3.21139e-006 1.05652e-007 
-2.64984 31.5997 -21.9409 -0 -11.1535 -0 0.14454 15.1474 -0.105402 0.338024 30.2946 -0.266975 0.338024 30.2946 -0.266975 0.517489 28.6304 -0.251441 4.64574 -12.495 0.997666 15.5413 5.0123 -36.0032 -44.2161 -49.9657 -18.4957 37.1382 -26.6358 -113.615 -4.60494 -30.0078 -16.4515 -1.53262e-006 4.70332e-007 4.5749e-007 -1.53262e-006 4.70332e-007 4.5749e-007 -1.53262e-006 4.70332e-007 4.5749e-007 -1.53262e-006 4.70332e-007 4.5749e-007 -0.0146545 -8.60306e-005 3.5799e-006 -1.53267e-006 4.70273e-007 4.57551e-007 -1.53262e-006 4.70332e-007 4.5749e-007 -0.0187943 -0.0011763 5.96784e-005 -1.53268e-006 4.70254e-007 4.57583e-007 -1.53262e-006 4.70332e-007 4.5749e-007 -0.0123191 -0.00326276 0.000676952 -1.44475e-006 8.63116e-007 -4.16541e-007 -1.53262e-006 4.70332e-007 4.5749e-007 -1.53262e-006 4.70332e-007 4.5749e-007 -1.53262e-006 4.70332e-007 4.5749e-007 -14.9276 5.69067 34.6311 43.2513 -50.2076 18.212 -37.3056 -26.2544 112.433 2.64841 6.6045 -27.6305 4.10653e-007 8.65086e-009 5.75748e-006 -3.2061e-007 -2.81136e-007 6.6741e-009 -3.57812e-015 -2.49972e-014 -3.18055e-015 4.10653e-007 8.65086e-009 5.75748e-006 0.0150333 -9.13656e-005 -7.93415e-006 -2.78299e-015 -2.74323e-014 -0 4.10653e-007 8.65086e-009 5.75748e-006 0.019009 -0.00119198 -5.8928e-005 -0 -1.2424e-015 -0 4.10653e-007 8.65086e-009 5.75748e-006 0.0123335 -0.00326487 -0.000684245 -9.51749e-032 -1.14301e-015 -4.77083e-015 4.10653e-007 8.65086e-009 5.75748e-006 -3.2061e-007 -2.81136e-007 6.6741e-009 -3.57812e-015 -2.49972e-014 -3.18055e-015 -12.8209 1.46792 -9.25603 -150.812 79.5503 154.319 -19.7258 52.3588 -1.57548 -4.95189e-007 3.19756e-006 -1.1587e-007 11.7295 2.16528 9.23604 151.024 79.7701 -154.501 18.9851 53.4011 2.7934 4.02178e-007 2.16756e-006 -3.06888e-006 
-2.64984 31.6538 -22.0701 -0 -11.7688 -0 0.14457 15.4141 -0.107493 0.340144 30.8279 -0.272918 0.340143 30.8278 -0.272917 0.51695 28.5219 -0.250318 4.67723 -14.13 1.13468 15.9875 3.96418 -35.3709 -44.2161 -49.9657 -18.4957 37.1366 -26.6389 -113.626 -4.36294 -30.5947 -15.9201 -1.4457e-006 8.55118e-007 -4.27844e-007 1.77014e-006 3.41879e-006 3.21263e-006 -1.4457e-006 8.55117e-007 -4.27844e-007 -1.4457e-006 8.55118e-007 -4.27844e-007 -0.0146235 -8.60998e-005 7.45341e-006 -1.5326e-006 4.71598e-007 4.56901e-007 -1.4457e-006 8.55118e-007 -4.27844e-007 -0.0187791 -0.00117649 6.31882e-005 -1.44332e-006 8.55337e-007 -4.27697e-007 -1.4457e-006 8.55118e-007 -4.27844e-007 -0.0123069 -0.00326012 0.000682883 -1.53257e-006 4.71606e-007 4.56936e-007 -1.4457e-006 8.55118e-007 -4.27844e-007 1.77014e-006 3.41879e-006 3.21263e-006 -1.4457e-006 8.55117e-007 -4.27844e-007 -15.4759 4.60749 34.0779 43.2314 -50.2171 18.1992 -37.3041 -26.2575 112.443 2.73455 6.03396 -28.1792 -7.03154e-008 8.01276e-008 4.72077e-009 -7.03153e-008 8.01276e-008 4.72076e-009 -7.03154e-008 8.01276e-008 4.72077e-009 -7.03154e-008 8.01276e-008 4.72077e-009 0.0149806 -9.11077e-005 -2.10613e-006 -3.90438e-007 1.43461e-008 -3.86443e-006 -7.03154e-008 8.01276e-008 4.72077e-009 0.0189952 -0.00119064 -5.75811e-005 -3.89957e-007 1.40687e-008 -3.86444e-006 -7.03154e-008 8.01276e-008 4.72077e-009 0.0122504 -0.0032433 -0.000678622 -7.03155e-008 8.01277e-008 4.71417e-009 -7.03154e-008 8.01276e-008 4.72077e-009 -7.03153e-008 8.01276e-008 4.72076e-009 -7.03154e-008 8.01276e-008 4.72077e-009 -12.8624 1.82363 -9.18308 -150.822 79.547 154.329 -19.7252 52.357 -1.57642 1.47108e-007 -2.78766e-009 1.73423e-006 11.7882 2.51839 9.18201 151.049 79.7625 -154.521 19.1405 53.492 2.68484 5.24378e-007 3.1199e-006 -5.23204e-006 
